<svg xmlns="http://www.w3.org/2000/svg" width="13.813" height="19.099" viewBox="0 0 13.813 19.099">
    <defs>
        <style>
            .cls-1{fill:#0cba70}
        </style>
    </defs>
    <g id="_000000ff" transform="translate(-95.98)">
        <path id="Path_4811" d="M102.647 0h.507a7.075 7.075 0 0 1 2.366.518 6.907 6.907 0 0 1 4.272 6.473 7.386 7.386 0 0 1-.551 2.346 28.913 28.913 0 0 1-2.176 4.3c-.967 1.613-2.01 3.18-3.1 4.709a2.824 2.824 0 0 1-.423.524 1.043 1.043 0 0 1-1.035.157 1.081 1.081 0 0 1-.495-.405 67.106 67.106 0 0 1-3.735-5.722 25.426 25.426 0 0 1-1.819-3.758A6.857 6.857 0 0 1 95.98 6.9a6.91 6.91 0 0 1 6.667-6.9m-.8 1.48a5.533 5.533 0 0 0-4.478 5.166 4.112 4.112 0 0 0 .207 1.463 14.959 14.959 0 0 0 .928 2.276 43.47 43.47 0 0 0 2.417 4.185q.948 1.472 1.967 2.9c1.067-1.5 2.084-3.027 3.026-4.6a29.508 29.508 0 0 0 1.886-3.646 8.652 8.652 0 0 0 .581-1.908 3.837 3.837 0 0 0 0-.975 5.466 5.466 0 0 0-.695-2.166 5.52 5.52 0 0 0-5.842-2.695z" class="cls-1"/>
        <path id="Path_4812" d="M178.937 80.007a3.454 3.454 0 1 1 .232 6.864 3.454 3.454 0 0 1-.232-6.864m.126 1.381a2.09 2.09 0 0 0-1.669 1.645 2.067 2.067 0 1 0 1.669-1.645z" class="cls-1" transform="translate(-76.54 -76.521)"/>
    </g>
</svg>
