<svg xmlns="http://www.w3.org/2000/svg" width="16.606" height="16.609" viewBox="0 0 16.606 16.609">
    <g>
        <path fill="#0cba70" d="M2.394 97.234a1.964 1.964 0 0 1 1.625.149 3.261 3.261 0 0 1 .688.593l2.322 2.324a2 2 0 0 1 .452.669 1.948 1.948 0 0 1-.464 2.13q-.641.639-1.28 1.279a3.434 3.434 0 0 1-.6.483 3.23 3.23 0 0 1-3.233.1 12.4 12.4 0 0 0 2.051 3.083 19.075 19.075 0 0 0 2.31 2.217 11.66 11.66 0 0 0 2.5 1.563 3.236 3.236 0 0 1-.363-1.9 3.2 3.2 0 0 1 .891-1.876c.445-.448.894-.893 1.34-1.341a2 2 0 0 1 .692-.467 1.943 1.943 0 0 1 1.78.186 2.521 2.521 0 0 1 .408.353l2.518 2.519a1.927 1.927 0 0 1 .571 1.387 1.866 1.866 0 0 1-.683 1.466 7.383 7.383 0 0 1-4.177 1.575h-.508a8.8 8.8 0 0 1-4.043-1.272 15.215 15.215 0 0 1-2.507-1.854 19.942 19.942 0 0 1-2.377-2.538 11.474 11.474 0 0 1-1.989-3.7A7.893 7.893 0 0 1 0 102.5v-.51a7.39 7.39 0 0 1 1.573-4.175 1.876 1.876 0 0 1 .821-.578m.182 1.382a7.118 7.118 0 0 0-.581.9 5.6 5.6 0 0 0-.69 3.214c.263.259.522.522.784.782a1.918 1.918 0 0 0 2.678.011l1.4-1.4a.635.635 0 0 0-.009-.876l-2.663-2.664a.641.641 0 0 0-.919.03m8.972 9.008q-.669.673-1.341 1.342a1.918 1.918 0 0 0-.008 2.658c.265.27.536.535.8.805a5.423 5.423 0 0 0 2-.19 6.634 6.634 0 0 0 2.093-1.063.641.641 0 0 0 .051-.937l-2.623-2.624a.647.647 0 0 0-.973.008z" transform="translate(0 -97.124)"/>
    </g>
</svg>
