<svg xmlns="http://www.w3.org/2000/svg" width="18.501" height="13.57" viewBox="0 0 18.501 13.57">
    <g>
        <path fill="#0cba70" d="M17.774 85.23q7.2-.01 14.405 0a4.116 4.116 0 0 1 .86.045 1.85 1.85 0 0 1 1.451 1.8v9.481a3.188 3.188 0 0 1-.065.888 1.846 1.846 0 0 1-1.709 1.357h-14.3a3.459 3.459 0 0 1-1.21-.106 1.852 1.852 0 0 1-1.216-1.674v-9.945a1.841 1.841 0 0 1 .668-1.414 1.86 1.86 0 0 1 1.117-.425m.33 1.229q2.936 2.248 5.864 4.507a2.091 2.091 0 0 0 2.543 0q2.934-2.252 5.865-4.507H18.105m-.88.881v9.6a.619.619 0 0 0 .578.623h14.841a.619.619 0 0 0 .615-.625v-9.6l-5.99 4.608a3.354 3.354 0 0 1-4.053 0z" transform="translate(-15.99 -85.226)"/>
    </g>
</svg>
