<svg xmlns="http://www.w3.org/2000/svg" width="13" height="17.333" viewBox="0 0 13 17.333">
    <path fill="#0061a2" d="M70.678 0h-.355a4.337 4.337 0 0 0-4.156 4.23v3.351a2.193 2.193 0 0 0-1.41.522A2.165 2.165 0 0 0 64 9.716V15.2a2.155 2.155 0 0 0 .46 1.3 2.181 2.181 0 0 0 1.588.829h8.9A2.167 2.167 0 0 0 77 15.2V9.715a2.165 2.165 0 0 0-.756-1.615 2.192 2.192 0 0 0-1.41-.522v-3.35A4.338 4.338 0 0 0 70.678 0m2.1 2.021a3.236 3.236 0 0 1 .922 1.741 5.584 5.584 0 0 1 .051 1.045v2.776h-6.5V4.266a3.247 3.247 0 0 1 5.529-2.245m2.4 6.7a1.093 1.093 0 0 1 .735.991v2.2H65.083v-2.2a1.092 1.092 0 0 1 .615-.942 1.175 1.175 0 0 1 .57-.109h8.4a1.4 1.4 0 0 1 .517.059m.732 4.28v2.1a1.172 1.172 0 0 1-.059.413 1.094 1.094 0 0 1-1.026.738h-8.7a1.094 1.094 0 0 1-1.046-1.014c-.006-.745 0-1.49 0-2.235z" transform="translate(-64)"/>
</svg>
