<svg xmlns="http://www.w3.org/2000/svg" id="_000000ff" width="18.527" height="18.521" viewBox="0 0 18.527 18.521">
    <defs>
        <style>
            .cls-1{fill:#0061a2}
        </style>
    </defs>
    <path id="Path_5593" d="M4.169 1.686A9.209 9.209 0 0 1 8.541.19a9.265 9.265 0 0 1 9.986 8.959v.546a9.27 9.27 0 0 1-6.8 8.664 9.63 9.63 0 0 1-2.042.324h-.84A9.27 9.27 0 0 1 0 9.694v-.545a9.265 9.265 0 0 1 4.169-7.463m1.069.7a8.107 8.107 0 0 0-3.082 10.939 12.689 12.689 0 0 1 4.223-1.835 2.9 2.9 0 0 1 2.455-2.612c.549-1.626 1.083-3.257 1.632-4.883a.585.585 0 0 1 .883-.246.593.593 0 0 1 .2.678L10.118 8.72a1.686 1.686 0 0 0-.07.234A2.868 2.868 0 0 1 11.5 9.9a2.907 2.907 0 0 1 .652 1.59 12.719 12.719 0 0 1 4.218 1.836A8.107 8.107 0 0 0 5.238 2.391m3.268 7.792a1.751 1.751 0 0 0-.912 1.086 13.3 13.3 0 0 1 3.343 0 1.758 1.758 0 0 0-.989-1.123 1.73 1.73 0 0 0-1.441.036M2.789 14.3a8.1 8.1 0 0 0 12.949 0 11.595 11.595 0 0 0-12.949 0z" class="cls-1" transform="translate(0 -.163)"/>
    <path id="Path_5594" d="M176.723 80.181a.877.877 0 0 1 .68.15.871.871 0 1 1-.68-.15z" class="cls-1" transform="translate(-169.651 -77.271)"/>
    <path id="Path_5595" d="M112.72 144.164a.87.87 0 1 1-.66.59.872.872 0 0 1 .66-.59z" class="cls-1" transform="translate(-107.966 -138.938)"/>
    <path id="Path_5596" d="M352.728 144.18a.876.876 0 0 1 .678.151.871.871 0 1 1-.678-.151z" class="cls-1" transform="translate(-339.286 -138.955)"/>
    <path id="Path_5597" d="M80.725 224.18a.867.867 0 0 1 1.034.923.869.869 0 1 1-1.034-.923z" class="cls-1" transform="translate(-77.128 -216.059)"/>
    <path id="Path_5598" d="M384.724 224.181a.87.87 0 1 1-.663.591.874.874 0 0 1 .663-.591z" class="cls-1" transform="translate(-370.125 -216.061)"/>
</svg>
