<svg xmlns="http://www.w3.org/2000/svg" id="_000000ff" width="22.036" height="16.53" viewBox="0 0 22.036 16.53">
    <defs>
        <style>
            .cls-1{fill:#0061a2}
        </style>
    </defs>
    <path id="Path_5599" d="M5.382 64.24a4.479 4.479 0 0 1 4.428 7.612 4.453 4.453 0 0 1-2.729 1.078 7.111 7.111 0 0 1 2.493.547 6.884 6.884 0 0 1 4.2 6.347.686.686 0 0 1-.373.61.694.694 0 0 1-.758-.082.7.7 0 0 1-.247-.573 5.509 5.509 0 0 0-11.019.044.69.69 0 0 1-.738.686.7.7 0 0 1-.639-.624v-.3a6.9 6.9 0 0 1 6.683-6.652 4.479 4.479 0 0 1-1.3-8.692m1.057 1.154a3.1 3.1 0 0 0-.068 6.119 3.068 3.068 0 0 0 1.989-.332 3.11 3.11 0 0 0 1.333-1.416 3.058 3.058 0 0 0 .227-1.933 3.1 3.1 0 0 0-3.481-2.438z" class="cls-1" transform="translate(0 -63.982)"/>
    <path id="Path_5600" d="M292.458 128.292a3.788 3.788 0 1 1 2.56 7.113 5.686 5.686 0 0 1 3.036 1.6 5.77 5.77 0 0 1 1.671 3.83v.293a.7.7 0 0 1-.64.623.687.687 0 0 1-.734-.637 4.577 4.577 0 0 0-.247-1.493 4.383 4.383 0 0 0-5.644-2.672.689.689 0 0 1-.924-.8.689.689 0 0 1 .447-.492 5.165 5.165 0 0 1 .937-.251 3.766 3.766 0 0 1-2.68-2.936 3.788 3.788 0 0 1 2.217-4.176m1.175 1.091a2.419 2.419 0 0 0-1.7 1.094 2.383 2.383 0 0 0-.33 1.773 2.406 2.406 0 1 0 2.027-2.867z" class="cls-1" transform="translate(-277.689 -125.226)"/>
</svg>
