<svg id="Layer_1" height="512" viewBox="0 0 128 128" width="512" xmlns="http://www.w3.org/2000/svg" data-name="Layer 1"><path d="m93.343 47.75h-4.968v-10.979a24.375 24.375 0 0 0 -48.75 0v10.979h-4.968a8.292 8.292 0 0 0 -8.282 8.282v51.289a8.292 8.292 0 0 0 8.282 8.283h58.686a8.293 8.293 0 0 0 8.282-8.283v-51.289a8.292 8.292 0 0 0 -8.282-8.282zm-50.218-10.979a20.875 20.875 0 0 1 41.75 0v10.979h-3.5v-10.979a17.375 17.375 0 0 0 -34.75 0v10.979h-3.5zm7 10.979v-10.979a13.875 13.875 0 0 1 27.75 0v10.979zm48 59.571a4.789 4.789 0 0 1 -4.782 4.783h-58.686a4.789 4.789 0 0 1 -4.782-4.783v-51.289a4.788 4.788 0 0 1 4.782-4.782h58.686a4.788 4.788 0 0 1 4.782 4.782z"/><path d="m71.392 68.188a11.082 11.082 0 0 0 -18.426 7.2 11 11 0 0 0 3.721 9.378 2.8 2.8 0 0 1 1.021 2.095v6.324a6.292 6.292 0 0 0 12.584 0v-6.262a2.938 2.938 0 0 1 1.042-2.173 11.077 11.077 0 0 0 .058-16.562zm-2.373 13.938a6.432 6.432 0 0 0 -2.227 4.8v6.265a2.792 2.792 0 0 1 -5.584 0v-6.327a6.33 6.33 0 0 0 -2.208-4.725 7.532 7.532 0 0 1 -2.545-6.424 7.668 7.668 0 0 1 6.677-6.805 8.148 8.148 0 0 1 .879-.049 7.5 7.5 0 0 1 5.05 1.933 7.58 7.58 0 0 1 -.038 11.332z"/></svg>