<svg xmlns="http://www.w3.org/2000/svg" id="_000000ff" width="18" height="18" viewBox="0 0 18 18">
    <defs>
        <style>
            .cls-1{fill:#0061a2}
        </style>
    </defs>
    <path id="Path_5603" d="M7.82 0h.11a1.14 1.14 0 0 1 .722.313A1.119 1.119 0 0 1 9 1.126v15.785A1.133 1.133 0 0 1 8 18h-.247c-2.2-.32-4.394-.629-6.592-.945a1.432 1.432 0 0 1-.636-.187A1.154 1.154 0 0 1 0 16.015V2.691a1.135 1.135 0 0 1 .825-.983L7.426.079A2.516 2.516 0 0 1 7.82 0M1.128 2.792c-.008.194 0 .389 0 .584v12.539q3.375.477 6.75.963V1.131c-2.253.551-4.5 1.111-6.75 1.661z" class="cls-1"/>
    <path id="Path_5604" d="M288.425 63.994a2.111 2.111 0 0 1 .309-.011h3.166a1.7 1.7 0 0 1 1.085.395 1.682 1.682 0 0 1 .59 1.077c.029.458.008.919.012 1.378a.562.562 0 0 1-1.122 0v-1.164a.574.574 0 0 0-.561-.56h-3.269a.636.636 0 0 1-.429-.1.565.565 0 0 1-.179-.72.553.553 0 0 1 .398-.295z" class="cls-1" transform="translate(-277.836 -61.734)"/>
    <path id="Path_5605" d="M308.039 192.261a.567.567 0 0 1 .811-.052c.771.762 1.531 1.536 2.3 2.3a.749.749 0 0 1 .129.244v.24a.664.664 0 0 1-.143.271c-.706.7-1.405 1.4-2.108 2.105a.922.922 0 0 1-.422.305.563.563 0 0 1-.537-.946l1.288-1.289h-4.829a.551.551 0 0 1-.465-.242.564.564 0 0 1 .463-.883c1.607-.006 3.214.006 4.821-.006q-.643-.636-1.28-1.279a.572.572 0 0 1-.028-.768z" class="cls-1" transform="translate(-293.283 -185.311)"/>
    <path id="Path_5606" d="M144.608 232.009a.847.847 0 1 1-.625.612.848.848 0 0 1 .625-.612z" class="cls-1" transform="translate(-138.895 -223.83)"/>
    <path id="Path_5607" d="M292.9 384.009a.563.563 0 0 1 .657.514v1.235a1.691 1.691 0 0 1-1.161 1.536 2.882 2.882 0 0 1-.948.08h-2.99a.557.557 0 0 1-.525-.523.566.566 0 0 1 .56-.6h3.376a.558.558 0 0 0 .489-.285.644.644 0 0 0 .075-.346v-1.057a.56.56 0 0 1 .467-.554z" class="cls-1" transform="translate(-277.812 -370.499)"/>
</svg>
