<svg xmlns="http://www.w3.org/2000/svg" id="_000000ff" width="18.558" height="21.206" viewBox="0 0 18.558 21.206">
    <defs>
        <style>
            .cls-1{fill:#0061a2}
        </style>
    </defs>
    <path id="Path_5567" d="M133.063 0h.446a5.306 5.306 0 0 1 4.985 6.3 5.3 5.3 0 1 1-5.431-6.3m-.7 1.434a3.987 3.987 0 0 0-2.211 1.42 7.032 7.032 0 0 0 3.131 1.613 6.942 6.942 0 0 0 3.84-.218 4.038 4.038 0 0 0-2.01-2.476 3.961 3.961 0 0 0-2.749-.338m-2.857 2.622a3.977 3.977 0 1 0 7.744 1.553 8.406 8.406 0 0 1-3.837.236 8.394 8.394 0 0 1-3.906-1.79z" class="cls-1" transform="translate(-124.008)"/>
    <path id="Path_5568" d="M36.761 273.146a9.277 9.277 0 0 1 13.783 7.735 1.311 1.311 0 0 1-.079.7.679.679 0 0 1-.512.334h-.128a.667.667 0 0 1-.6-.662 7.953 7.953 0 0 0-15.9-.374 1.745 1.745 0 0 1-.081.677.676.676 0 0 1-.526.359h-.129a.669.669 0 0 1-.6-.662 9.275 9.275 0 0 1 4.765-8.111z" class="cls-1" transform="translate(-31.996 -260.713)"/>
</svg>
