<svg height="512pt" viewBox="0 -1 512.0004 512" width="512pt" xmlns="http://www.w3.org/2000/svg"><path d="m476.765625 367.527344c0-98.695313-122.339844-145.898438-188.417969-72.207032-39.910156 44.511719-36.164062 112.726563 8.195313 152.519532 69.101562 61.992187 180.222656 13.144531 180.222656-80.3125zm-108.207031 92.863281c-50.511719 0-92.773438-41.03125-92.773438-93.011719 0-80.773437 95.734375-122.257812 155.023438-69.070312 62.382812 55.964844 24.320312 162.082031-62.25 162.082031zm0 0"/><path d="m368.722656 290.472656c-4.175781 0-7.558594 3.382813-7.558594 7.554688v61.867187h-50.625c-4.175781 0-7.558593 3.382813-7.558593 7.558594 0 4.171875 3.382812 7.554687 7.558593 7.554687h58.183594c4.171875 0 7.554688-3.382812 7.554688-7.554687v-69.425781c0-4.171875-3.382813-7.554688-7.554688-7.554688zm0 0"/><path d="m275.015625 49.089844h-212.546875c-11.492188 0-20.84375 9.359375-20.84375 20.855468v74.085938c0 11.496094 9.351562 20.851562 20.84375 20.851562h212.546875c11.496094 0 20.84375-9.355468 20.84375-20.851562v-74.085938c0-11.496093-9.347656-20.855468-20.84375-20.855468zm5.730469 94.941406c0 3.164062-2.566406 5.742188-5.730469 5.742188h-212.546875c-3.160156 0-5.730469-2.578126-5.730469-5.742188v-74.085938c0-3.164062 2.570313-5.742187 5.730469-5.742187h212.546875c3.164063 0 5.730469 2.578125 5.730469 5.742187zm0 0"/><path d="m255.714844 80.5625h-173.941406c-4.175782 0-7.558594 3.382812-7.558594 7.554688 0 4.175781 3.382812 7.558593 7.558594 7.558593h173.941406c4.171875 0 7.554687-3.382812 7.554687-7.558593 0-4.171876-3.382812-7.554688-7.554687-7.554688zm0 0"/><path d="m208.789062 118.300781h-28.289062c-4.171875 0-7.554688 3.386719-7.554688 7.554688 0 4.183593 3.382813 7.558593 7.554688 7.558593h28.289062c4.167969 0 7.554688-3.375 7.554688-7.558593 0-4.167969-3.386719-7.554688-7.554688-7.554688zm0 0"/><path d="m150.277344 118.300781h-68.503906c-4.171876 0-7.558594 3.386719-7.558594 7.554688 0 4.183593 3.386718 7.558593 7.558594 7.558593h68.503906c4.171875 0 7.554687-3.375 7.554687-7.558593 0-4.167969-3.382812-7.554688-7.554687-7.554688zm0 0"/><path d="m255.714844 228.953125h-173.941406c-4.175782 0-7.558594 3.382813-7.558594 7.558594 0 4.171875 3.382812 7.554687 7.558594 7.554687h173.941406c4.171875 0 7.554687-3.382812 7.554687-7.554687 0-4.175781-3.382812-7.558594-7.554687-7.558594zm0 0"/><path d="m131.351562 266.695312h-49.578124c-4.175782 0-7.558594 3.382813-7.558594 7.554688 0 4.175781 3.382812 7.558594 7.558594 7.558594h49.578124c4.171876 0 7.554688-3.382813 7.554688-7.558594 0-4.171875-3.382812-7.554688-7.554688-7.554688zm0 0"/><path d="m81.773438 392.457031h124.496093c4.171875 0 7.554688-3.382812 7.554688-7.554687 0-4.175782-3.382813-7.558594-7.554688-7.558594h-124.496093c-4.175782 0-7.558594 3.382812-7.558594 7.558594 0 4.171875 3.382812 7.554687 7.558594 7.554687zm0 0"/><path d="m142.21875 415.085938h-60.445312c-4.171876 0-7.558594 3.386718-7.558594 7.558593 0 4.167969 3.386718 7.554688 7.558594 7.554688h60.445312c4.167969 0 7.554688-3.386719 7.554688-7.554688 0-4.171875-3.386719-7.558593-7.554688-7.558593zm0 0"/><path d="m218.832031 415.085938h-46.390625c-4.171875 0-7.558594 3.386718-7.558594 7.558593 0 4.167969 3.386719 7.554688 7.558594 7.554688h46.390625c4.179688 0 7.554688-3.386719 7.554688-7.554688 0-4.171875-3.375-7.558593-7.554688-7.558593zm0 0"/><path d="m464.441406 260.8125c-35.535156-31.882812-83.042968-43.054688-126.957031-33.214844v-203.296875c0-13.398437-10.898437-24.300781-24.308594-24.300781h-288.867187c-13.410156 0-24.308594 10.902344-24.308594 24.300781v462.164063c0 13.398437 10.898438 24.296875 24.308594 24.296875h288.867187c5.933594 0 11.375-2.125 15.59375-5.660157 30.3125 8.808594 62.25 7.109376 90.527344-3.539062 3.910156-1.46875 5.882813-5.832031 4.414063-9.730469-1.472657-3.90625-5.832032-5.882812-9.730469-4.410156-44.582031 16.75-96.628907 7.976563-133.253907-26.546875-83.785156-78.9375-28.644531-221.621094 88.160157-221.621094 65.855469 0 120.609375 49.472656 127.347656 115.085938 4.953125 48.210937-17.320313 93.960937-56.898437 120.136718-3.484376 2.296876-4.441407 6.980469-2.136719 10.464844 2.296875 3.484375 6.992187 4.433594 10.46875 2.136719 78.746093-52.058594 86.222656-163.960937 16.773437-226.265625zm-215.226562 185.746094h-186.746094c-3.160156 0-5.730469-2.578125-5.730469-5.742188v-74.085937c0-3.164063 2.570313-5.742188 5.730469-5.742188h163.082031c-1.269531 29.382813 6.363281 59.460938 23.664063 85.570313zm31.53125-192.234375c-15.316406 11.921875-28.125 26.917969-37.484375 43.84375h-180.792969c-3.160156 0-5.730469-2.582031-5.730469-5.742188v-74.085937c0-3.164063 2.570313-5.742188 5.730469-5.742188h212.546875c3.164063 0 5.730469 2.578125 5.730469 5.742188zm41.628906-22.476563c-9.25 3.144532-18.125 7.234375-26.515625 12.191406v-25.699218c0-11.496094-9.347656-20.855469-20.84375-20.855469h-212.546875c-11.492188 0-20.84375 9.359375-20.84375 20.855469v74.085937c0 11.492188 9.351562 20.851563 20.84375 20.851563h173.558594c-4.269532 10.445312-7.300782 21.386718-8.996094 32.601562h-164.5625c-11.492188 0-20.84375 9.359375-20.84375 20.851563v74.085937c0 11.496094 9.351562 20.855469 20.84375 20.855469h198.28125c12.085938 13.878906 27.125 25.601563 43.914062 33.980469h-280.355468c-5.078125 0-9.199219-4.121094-9.199219-9.1875v-462.164063c0-5.070312 4.121094-9.1875 9.199219-9.1875h288.867187c5.078125 0 9.199219 4.117188 9.199219 9.1875zm0 0"/></svg>