<?xml version="1.0" encoding="iso-8859-1"?>
<!-- Generator: Adobe Illustrator 19.0.0, SVG Export Plug-In . SVG Version: 6.00 Build 0)  -->
<svg version="1.1" id="Capa_1" xmlns="http://www.w3.org/2000/svg" xmlns:xlink="http://www.w3.org/1999/xlink" x="0px" y="0px"
	 viewBox="0 0 512.001 512.001" style="enable-background:new 0 0 512.001 512.001;" xml:space="preserve">
<g>
	<g>
		<path d="M238.559,152.037h-26.572v-26.572c0-5.523-4.478-9.999-9.999-9.999s-9.999,4.477-9.999,9.999v26.572h-26.572
			c-5.522,0-9.999,4.477-9.999,9.999s4.477,9.999,9.999,9.999h26.572v26.572c0,5.523,4.478,9.999,9.999,9.999
			s9.999-4.477,9.999-9.999v-26.572h26.572c5.522,0,9.999-4.477,9.999-9.999S244.081,152.037,238.559,152.037z"/>
	</g>
</g>
<g>
	<g>
		<path d="M201.987,74.042c-48.52,0-87.995,39.475-87.995,87.995s39.475,87.995,87.995,87.995s87.995-39.475,87.995-87.995
			S250.507,74.042,201.987,74.042z M201.987,230.032c-37.493,0-67.996-30.503-67.996-67.996c0-37.493,30.503-67.996,67.996-67.996
			c37.493,0,67.996,30.503,67.996,67.996C269.983,199.529,239.48,230.032,201.987,230.032z"/>
	</g>
</g>
<g>
	<g>
		<path d="M401.046,91.939L312.052,2.944c-1.876-1.875-4.419-2.929-7.071-2.929H29.998C13.457,0.015,0,13.473,0,30.014v451.974
			c0,16.541,13.457,29.998,29.998,29.998h191.009c5.522,0,9.999-4.478,9.999-9.999s-4.478-9.999-9.999-9.999H29.998
			c-5.514,0-9.999-4.486-9.999-9.999V30.014c0-5.514,4.486-9.999,9.999-9.999h264.983v58.996c0,16.541,13.457,29.998,29.998,29.998
			h58.996v177.989c0,5.522,4.478,9.999,9.999,9.999s9.999-4.478,9.999-9.999V99.009C403.975,96.357,402.921,93.814,401.046,91.939z
			 M324.98,89.01c-5.514,0-9.999-4.486-9.999-9.999V34.156l54.855,54.854H324.98z"/>
	</g>
</g>
<g>
	<g>
		<path d="M329.979,279.998H156.323c-5.522,0-9.999,4.478-9.999,9.999s4.478,9.999,9.999,9.999h173.656
			c5.522,0,9.999-4.477,9.999-9.999C339.979,284.476,335.501,279.998,329.979,279.998z"/>
	</g>
</g>
<g>
	<g>
		<path d="M106.577,279.998H73.995c-5.522,0-9.999,4.478-9.999,9.999s4.478,9.999,9.999,9.999h32.582
			c5.522,0,9.999-4.478,9.999-9.999S112.099,279.998,106.577,279.998z"/>
	</g>
</g>
<g>
	<g>
		<path d="M255.984,335.994h-99.661c-5.522,0-9.999,4.478-9.999,9.999s4.478,9.999,9.999,9.999h99.661
			c5.522,0,9.999-4.477,9.999-9.999C265.983,340.472,261.506,335.994,255.984,335.994z"/>
	</g>
</g>
<g>
	<g>
		<path d="M106.577,335.994H73.995c-5.522,0-9.999,4.478-9.999,9.999s4.478,9.999,9.999,9.999h32.582
			c5.522,0,9.999-4.478,9.999-9.999S112.099,335.994,106.577,335.994z"/>
	</g>
</g>
<g>
	<g>
		<path d="M163.389,394.921c-1.859-1.86-4.43-2.93-7.069-2.93c-2.63,0-5.2,1.069-7.07,2.93c-1.86,1.86-2.93,4.44-2.93,7.07
			c0,2.63,1.069,5.21,2.93,7.069c1.86,1.86,4.44,2.931,7.07,2.931c2.64,0,5.21-1.07,7.069-2.931c1.87-1.859,2.931-4.439,2.931-7.069
			C166.32,399.361,165.259,396.781,163.389,394.921z"/>
	</g>
</g>
<g>
	<g>
		<path d="M106.577,391.991H73.995c-5.522,0-9.999,4.478-9.999,9.999c0,5.522,4.478,9.999,9.999,9.999h32.582
			c5.522,0,9.999-4.478,9.999-9.999C116.577,396.469,112.099,391.991,106.577,391.991z"/>
	</g>
</g>
<g>
	<g>
		<path d="M450.003,387.989c-2.935,0-5.819,0.219-8.645,0.616c6.301-21.134,1.125-44.988-15.531-61.646
			c-11.71-11.709-27.278-18.158-43.838-18.158c-16.561,0-32.129,6.449-43.838,18.158l-79.191,79.19
			c-11.709,11.71-18.158,27.278-18.158,43.838c0,16.561,6.449,32.129,18.158,43.838c12.088,12.087,27.96,18.129,43.838,18.129
			c15.874,0,31.753-6.045,43.838-18.129l41.432-41.432c1.271,33.073,28.558,59.59,61.936,59.59
			c34.186,0,61.997-27.811,61.997-61.997C512.001,415.8,484.189,387.989,450.003,387.989z M332.493,479.684
			c-16.374,16.376-43.018,16.376-59.392,0c-7.933-7.932-12.301-18.478-12.301-29.696c0-11.218,4.368-21.765,12.301-29.696
			l32.525-32.525l59.392,59.393L332.493,479.684z M379.158,433.018l-59.392-59.393l32.525-32.524
			c7.933-7.933,18.478-12.301,29.696-12.301c11.218,0,21.765,4.368,29.696,12.301c16.375,16.374,16.375,43.018,0,59.392
			L379.158,433.018z M440.004,490.773c-18.344-4.5-31.999-21.075-31.999-40.786c0-19.712,13.654-36.287,31.999-40.785V490.773z
			 M460.002,490.773v-81.572c18.345,4.499,31.999,21.074,31.999,40.785S478.347,486.273,460.002,490.773z"/>
	</g>
</g>
<g>
</g>
<g>
</g>
<g>
</g>
<g>
</g>
<g>
</g>
<g>
</g>
<g>
</g>
<g>
</g>
<g>
</g>
<g>
</g>
<g>
</g>
<g>
</g>
<g>
</g>
<g>
</g>
<g>
</g>
</svg>
