<svg id="Capa_1" enable-background="new 0 0 507.933 507.933" height="512" viewBox="0 0 507.933 507.933" width="512" xmlns="http://www.w3.org/2000/svg"><g><path d="m97.924 66.644h82.177c4.142 0 7.5-3.358 7.5-7.5s-3.358-7.5-7.5-7.5h-82.177c-4.142 0-7.5 3.358-7.5 7.5s3.357 7.5 7.5 7.5z"/><path d="m97.924 107.526h174.844c4.142 0 7.5-3.358 7.5-7.5s-3.358-7.5-7.5-7.5h-174.844c-4.142 0-7.5 3.358-7.5 7.5s3.357 7.5 7.5 7.5z"/><path d="m97.924 144.551h174.844c4.142 0 7.5-3.358 7.5-7.5s-3.358-7.5-7.5-7.5h-174.844c-4.142 0-7.5 3.358-7.5 7.5s3.357 7.5 7.5 7.5z"/><path d="m97.924 187.747h115.547c4.142 0 7.5-3.358 7.5-7.5s-3.358-7.5-7.5-7.5h-115.547c-4.142 0-7.5 3.358-7.5 7.5s3.357 7.5 7.5 7.5z"/><path d="m92.985 255.83c0 25.889 21.062 46.951 46.951 46.951s46.951-21.062 46.951-46.951-21.062-46.951-46.951-46.951-46.951 21.062-46.951 46.951zm78.902 0c0 17.618-14.333 31.951-31.951 31.951s-31.951-14.333-31.951-31.951 14.333-31.951 31.951-31.951 31.951 14.333 31.951 31.951z"/><path d="m424.69 262.461v-15.348c12.563-4.55 21.565-16.599 21.565-30.713v-20.874c0-18.006-14.649-32.655-32.655-32.655h-21.216c-4.142 0-7.5 3.358-7.5 7.5s3.358 7.5 7.5 7.5h21.216c9.735 0 17.655 7.92 17.655 17.655v20.874c0 9.735-7.92 17.655-17.655 17.655h-102.431c-9.735 0-17.656-7.92-17.656-17.655v-20.874c0-9.735 7.92-17.655 17.656-17.655h51.215c4.142 0 7.5-3.358 7.5-7.5s-3.358-7.5-7.5-7.5h-33.718c.035-.293.058-.591.058-.894v-127.992c0-18.739-15.246-33.985-33.985-33.985h-218.572c-18.74 0-33.985 15.246-33.985 33.985v141.978c0 4.142 3.358 7.5 7.5 7.5s7.5-3.358 7.5-7.5v-141.978c0-10.468 8.516-18.985 18.985-18.985h218.572c10.468 0 18.985 8.517 18.985 18.985v127.992c0 .303.023.6.058.894h-2.613c-18.006 0-32.656 14.649-32.656 32.655v20.874c0 14.114 9.002 26.163 21.565 30.713v15.348c-23.388 4.695-41.061 25.391-41.061 50.14v13.725l-30.61 18.12-.333.209c-1.722 1.146-3.934 1.125-5.635-.055l-28.453-17.461c-6.892-4.661-15.981-4.564-22.772.242l-25.866 16.537-.369.251c-1.771 1.288-4.147 1.282-5.914-.015l-26.373-17.081c-6.41-4.585-14.88-4.988-21.696-1.025l-25.991 14.049-.254.144c-2.262 1.339-4.276.475-5.038.041-.761-.434-2.531-1.727-2.531-4.356v-129.963c0-4.142-3.358-7.5-7.5-7.5s-7.5 3.358-7.5 7.5v129.963c0 7.281 3.776 13.781 10.102 17.387 6.278 3.579 13.73 3.545 19.968-.083l25.99-14.048.254-.144c1.73-1.024 3.897-.918 5.52.272l26.372 17.081c6.959 4.979 16.221 5.003 23.204.058l25.866-16.536.369-.251c1.721-1.251 4.054-1.277 5.805-.063l28.452 17.46c3.404 2.304 7.305 3.458 11.21 3.458 3.782 0 7.566-1.083 10.904-3.251l22.819-13.508v46.428c-15.642-2.903-32.316.425-45.807 10.301-10.081-7.401-22.204-11.405-34.946-11.405-15.816 0-30.686 6.159-41.87 17.343s-17.343 26.053-17.343 41.869 6.159 30.686 17.343 41.87 26.053 17.343 41.87 17.343c12.741 0 24.865-4.003 34.945-11.405 10.419 7.632 22.666 11.4 34.883 11.399 11.171-.001 22.305-3.157 31.979-9.354 8.776 6.407 19.135 9.787 30.087 9.787h104.449c28.2 0 51.143-22.942 51.143-51.143v-144.189c.001-24.75-17.672-45.445-41.06-50.141zm-109.612-1.003v-12.403h94.612v12.403zm-41.441 150.734-36.162 36.162c0-.02.001-.04.001-.06 0-13.721-4.642-26.726-13.173-37.233 15.131-9.695 34.812-9.083 49.334 1.131zm-126.636 4.839c8.351-8.351 19.454-12.95 31.263-12.95 9.269 0 18.096 2.845 25.505 8.101l-61.616 61.618c-5.257-7.41-8.101-16.237-8.101-25.506 0-11.81 4.599-22.912 12.949-31.263zm5.758 67.375 61.617-61.617c5.256 7.409 8.101 16.236 8.101 25.505 0 11.81-4.599 22.913-12.95 31.263s-19.453 12.95-31.263 12.95c-9.268 0-18.095-2.845-25.505-8.101zm71.537 1.132c2.403-2.958 4.501-6.111 6.27-9.427.549-.319 1.07-.706 1.54-1.176l52.147-52.146c5.256 7.409 8.101 16.236 8.101 25.505 0 11.81-4.599 22.913-12.95 31.263-14.799 14.798-37.83 17.079-55.108 5.981zm190.313 7.395h-104.45c-6.48 0-12.663-1.677-18.142-4.876 9.911-10.912 15.336-24.92 15.336-39.763 0-15.816-6.159-30.686-17.343-41.869-4.756-4.756-10.181-8.533-15.994-11.335v-82.488c0-19.929 16.213-36.143 36.143-36.143h104.449c19.929 0 36.143 16.214 36.143 36.143v2.542h-33.584c-19.848 0-35.996 16.148-35.996 35.996v60.142c0 19.849 16.148 35.997 35.996 35.997h33.584v9.512c0 19.929-16.213 36.142-36.142 36.142zm35.861-162.789v102.135h-33.304c-11.577 0-20.996-9.419-20.996-20.997v-60.142c0-11.577 9.419-20.996 20.996-20.996z"/><path d="m346.002 339.494h-34.956c-4.142 0-7.5 3.358-7.5 7.5s3.358 7.5 7.5 7.5h34.956c4.142 0 7.5-3.358 7.5-7.5s-3.358-7.5-7.5-7.5z"/><path d="m346.002 373.711h-34.956c-4.142 0-7.5 3.358-7.5 7.5s3.358 7.5 7.5 7.5h34.956c4.142 0 7.5-3.358 7.5-7.5s-3.358-7.5-7.5-7.5z"/><path d="m346.002 407.928h-34.956c-4.142 0-7.5 3.358-7.5 7.5s3.358 7.5 7.5 7.5h34.956c4.142 0 7.5-3.358 7.5-7.5s-3.358-7.5-7.5-7.5z"/></g></svg>