<svg xmlns="http://www.w3.org/2000/svg" id="Profile" width="239" height="30" viewBox="0 0 239 30">
    <defs>
        <style>
            .cls-4{fill:#0061a2}
        </style>
    </defs>
    <text id="EPS_Nomination" fill="#454545" font-family="SegoeUI, Segoe UI" font-size="15px" letter-spacing="-0.005em" transform="translate(144 20)">
        <tspan x="-105.768" y="0">EPS Nomination</tspan>
    </text>
    <path id="Path_1409" fill="#ababab" d="M149.595 79.277l-3.946-3.946a.578.578 0 0 1 0-.816l.346-.346a.578.578 0 0 1 .816 0l4.7 4.7a.582.582 0 0 1 0 .819l-4.694 4.694a.578.578 0 0 1-.816 0l-.346-.346a.578.578 0 0 1 0-.816z" transform="translate(87.323 -64.549)"/>
    <rect id="Rectangle_571" width="30" height="30" fill="#0061a2" opacity="0.1" rx="9"/>
    <g id="_000000ff" transform="translate(7.068 6)">
        <path id="Path_5567" d="M132.345 0h.383a4.555 4.555 0 0 1 4.28 5.407A4.552 4.552 0 1 1 132.345 0m-.6 1.231a3.423 3.423 0 0 0-1.9 1.219 6.037 6.037 0 0 0 2.688 1.385 5.96 5.96 0 0 0 3.3-.187 3.467 3.467 0 0 0-1.726-2.126 3.4 3.4 0 0 0-2.36-.291m-2.453 2.251a3.414 3.414 0 1 0 6.648 1.333 7.217 7.217 0 0 1-3.294.2 7.207 7.207 0 0 1-3.356-1.533z" class="cls-4" transform="translate(-124.57)"/>
        <path id="Path_5568" d="M36.087 272.98a7.964 7.964 0 0 1 11.834 6.641 1.126 1.126 0 0 1-.068.6.583.583 0 0 1-.44.287H47.3a.573.573 0 0 1-.513-.568 6.828 6.828 0 0 0-13.648-.321 1.5 1.5 0 0 1-.07.581.58.58 0 0 1-.452.308h-.111a.574.574 0 0 1-.513-.568 7.963 7.963 0 0 1 4.091-6.964z" class="cls-4" transform="translate(-31.996 -262.306)"/>
    </g>
</svg>
