<svg xmlns="http://www.w3.org/2000/svg" id="user_3_" width="45.247" height="54.233" viewBox="0 0 45.247 54.233">
    <defs>
        <style>
            .cls-1{fill:#fff}
        </style>
    </defs>
    <path id="Path_27" d="M100.094 26.124a12.639 12.639 0 0 0 9.236-3.824 12.639 12.639 0 0 0 3.826-9.236 12.641 12.641 0 0 0-3.827-9.236 13.059 13.059 0 0 0-18.471 0 12.639 12.639 0 0 0-3.827 9.235 12.639 12.639 0 0 0 3.828 9.237 12.642 12.642 0 0 0 9.235 3.824zm0 0" class="cls-1" transform="translate(-77.813)"/>
    <path id="Path_28" d="M45.137 262.822a32.267 32.267 0 0 0-.437-3.422 27 27 0 0 0-.843-3.445 17.018 17.018 0 0 0-1.416-3.213 12.124 12.124 0 0 0-2.136-2.783 9.418 9.418 0 0 0-3.068-1.928 10.6 10.6 0 0 0-3.917-.709 3.975 3.975 0 0 0-2.123.9c-.636.415-1.381.9-2.212 1.426a12.669 12.669 0 0 1-2.862 1.261 11.112 11.112 0 0 1-7 0 12.641 12.641 0 0 1-2.86-1.26c-.823-.526-1.568-1.006-2.214-1.427a3.97 3.97 0 0 0-2.122-.9 10.59 10.59 0 0 0-3.916.71 9.41 9.41 0 0 0-3.068 1.928 12.126 12.126 0 0 0-2.135 2.783 17.054 17.054 0 0 0-1.418 3.207 27.068 27.068 0 0 0-.842 3.45 32.154 32.154 0 0 0-.439 3.428c-.072 1.038-.108 2.115-.108 3.2a9.005 9.005 0 0 0 2.675 6.813 9.628 9.628 0 0 0 6.892 2.514H35.68a9.626 9.626 0 0 0 6.892-2.514 9 9 0 0 0 2.675-6.814c0-1.093-.037-2.171-.11-3.2zm0 0" class="cls-1" transform="translate(0 -221.12)"/>
</svg>
