<svg xmlns="http://www.w3.org/2000/svg" id="user_3_" width="29.246" height="35.055" viewBox="0 0 29.246 35.055">
    <defs>
        <style>
            .cls-1{fill:#fff}
        </style>
    </defs>
    <path id="Path_27" d="M95.475 16.886a8.169 8.169 0 0 0 5.97-2.474 8.169 8.169 0 0 0 2.473-5.97 8.171 8.171 0 0 0-2.474-5.97 8.441 8.441 0 0 0-11.939 0 8.17 8.17 0 0 0-2.474 5.969 8.169 8.169 0 0 0 2.474 5.97 8.171 8.171 0 0 0 5.97 2.475zm0 0" class="cls-1" transform="translate(-81.073)"/>
    <path id="Path_28" d="M29.175 257.339a20.856 20.856 0 0 0-.284-2.215 17.455 17.455 0 0 0-.545-2.227 11 11 0 0 0-.915-2.077 7.836 7.836 0 0 0-1.381-1.8 6.088 6.088 0 0 0-1.983-1.246 6.854 6.854 0 0 0-2.532-.458 2.569 2.569 0 0 0-1.372.582c-.411.268-.892.578-1.429.922a8.191 8.191 0 0 1-1.85.815 7.183 7.183 0 0 1-4.525 0 8.171 8.171 0 0 1-1.848-.815c-.532-.34-1.013-.65-1.431-.922a2.566 2.566 0 0 0-1.372-.582 6.845 6.845 0 0 0-2.531.459 6.082 6.082 0 0 0-1.983 1.246 7.838 7.838 0 0 0-1.38 1.8A11.022 11.022 0 0 0 .9 252.9a17.5 17.5 0 0 0-.545 2.227 20.783 20.783 0 0 0-.285 2.213c-.047.671-.07 1.367-.07 2.07a5.821 5.821 0 0 0 1.729 4.4 6.223 6.223 0 0 0 4.455 1.625h16.878a6.222 6.222 0 0 0 4.455-1.625 5.818 5.818 0 0 0 1.729-4.4c0-.706-.024-1.4-.071-2.071zm0 0" class="cls-1" transform="translate(0 -230.384)"/>
</svg>
